# xmcd
#
# Track frame offsets:
#	150
#	11990
#	25520
#	38892
#	51097
#	63880
#	76607
#	90792
#	103975
#	116250
#	127542
#	140122
#	153300
#	166740
#	179860
#	193965
#	204285
#	218145
#	230560
#	243460
#	256522
#	267760
#	280007
#	294602
#	309202
#	324142
#
# Disc length: 4532 seconds
#
# Revision: 0
# Processed by: cddbd v1.5PL3 Copyright (c) Steve Scherf et al.
# Submitted via: dBpowerAMP V4.0
#
DISCID=5511b21a
DTITLE=Muddy Waters - Some Roots Recycled
DYEAR=1900
DGENRE=Blues
TTITLE0=Kind Hearted Woman
TTITLE1=Rollin'n'Tumblin
TTITLE2=Walkin Blues
TTITLE3=Howling Wolf
TTITLE4=Stuff You Gotta Watch
TTITLE5=Baby Please Don't Go
TTITLE6=Smokestack Lightning
TTITLE7=I Got To Find My Baby
TTITLE8=Blues Before Sunrise
TTITLE9=Grainling
TTITLE10=Mean Mistreater
TTITLE11=I Fell So Good
TTITLE12=Baby I Done Got Wise
TTITLE13=Southlound Train
TTITLE14=When I Got To Thinking
TTITLE15=Tell Me Baby
TTITLE16=Lonesome Road Blues
TTITLE17=Five Long Years
TTITLE18=Elevate Me Mama
TTITLE19=So Glad I'm Living
TTITLE20=Early In The Morning
TTITLE21=You Don't Have To Go
TTITLE22=The Things I Used To Do
TTITLE23=Good Morning Little Schoolgirl
TTITLE24=Black Night
TTITLE25=Sweet Little Angel
EXTD=
EXTT0=
EXTT1=
EXTT2=
EXTT3=
EXTT4=
EXTT5=
EXTT6=
EXTT7=
EXTT8=
EXTT9=
EXTT10=
EXTT11=
EXTT12=
EXTT13=
EXTT14=
EXTT15=
EXTT16=
EXTT17=
EXTT18=
EXTT19=
EXTT20=
EXTT21=
EXTT22=
EXTT23=
EXTT24=
EXTT25=
PLAYORDER=
